<?xml version="1.0" encoding="UTF-8" standalone="no"?>
<svg
        xmlns:dc="http://purl.org/dc/elements/1.1/"
        xmlns:cc="http://creativecommons.org/ns#"
        xmlns:rdf="http://www.w3.org/1999/02/22-rdf-syntax-ns#"
        xmlns="http://www.w3.org/2000/svg"
        xmlns:sodipodi="http://sodipodi.sourceforge.net/DTD/sodipodi-0.dtd"
        xmlns:inkscape="http://www.inkscape.org/namespaces/inkscape"
        width="175.15895mm"
        height="39.11314mm"
        viewBox="0 0 175.15895 39.11314"
        version="1.1"
        id="svg3774"
        inkscape:version="1.0.2 (e86c870879, 2021-01-15)"
        sodipodi:docname="logo.svg">
  <defs
     id="defs3768">
    <rect
       x="65.172713"
       y="-21.405075"
       width="160.08251"
       height="33.54391"
       id="rect13" />
  </defs>
  <sodipodi:namedview
     id="base"
     pagecolor="#ffffff"
     bordercolor="#666666"
     borderopacity="1.0"
     inkscape:pageopacity="0.0"
     inkscape:pageshadow="2"
     inkscape:zoom="1.4"
     inkscape:cx="247.17485"
     inkscape:cy="0.3834347"
     inkscape:document-units="mm"
     inkscape:current-layer="g3724"
     showgrid="false"
     inkscape:window-width="1920"
     inkscape:window-height="983"
     inkscape:window-x="0"
     inkscape:window-y="0"
     inkscape:window-maximized="1"
     fit-margin-top="0"
     fit-margin-left="0"
     fit-margin-right="0"
     fit-margin-bottom="0"
     inkscape:document-rotation="0" />
  <metadata
     id="metadata3771">
    <rdf:RDF>
      <cc:Work
         rdf:about="">
        <dc:format>image/svg+xml</dc:format>
        <dc:type
           rdf:resource="http://purl.org/dc/dcmitype/StillImage" />
        <dc:title></dc:title>
      </cc:Work>
    </rdf:RDF>
  </metadata>
  <g
     inkscape:label="Calque 1"
     inkscape:groupmode="layer"
     id="layer1"
     transform="translate(-20.521716,-9.836287)">
    <g
       id="g3724"
       transform="translate(1.8400748,-17.950172)">
      <path
         style="fill:#6c6d70;stroke-width:0.26458332"
         d="m 26.55674,41.453881 c 0.01357,-6.57163 3.40886,-10.492422 9.086117,-10.492422 2.952451,0 4.449974,0.559054 6.252069,2.33402 1.6598,1.634811 2.430521,3.263942 2.758837,5.831558 l 0.181406,1.418704 -0.872942,-0.534603 c -0.480116,-0.294033 -1.35995,-0.664031 -1.955186,-0.822218 -0.942851,-0.250568 -1.122598,-0.422293 -1.395521,-1.333226 -0.927658,-3.096243 -5.495679,-4.22977 -8.457403,-2.098655 -1.181058,0.849833 -1.632538,2.238618 -1.632538,5.021814 v 2.561756 l -1.080105,-0.274162 c -0.748668,-0.190031 -1.357587,-0.188997 -1.984375,0.0034 l -0.904269,0.277537 z"
         id="path3730"
         inkscape:connector-curvature="0" />
      <path
         style="fill:#e10f46;stroke-width:0.26458332"
         d="M 24.303871,61.479232 C 21.956068,60.923864 20.31367,59.7221 19.367318,57.867099 c -1.748643,-3.427625 0.0034,-8.063341 3.486286,-9.224301 1.114772,-0.371592 1.159607,-0.430004 1.451297,-1.890803 0.675287,-3.381864 4.101411,-4.892288 6.663874,-2.937801 l 0.861803,0.657329 0.378125,-0.904979 c 1.429267,-3.420719 6.149792,-5.426624 10.081061,-4.283772 1.266058,0.368053 1.85067,0.750816 3.183064,2.084043 1.762898,1.764 2.442565,3.220182 2.573221,5.51312 0.06952,1.220038 0.08615,1.240676 1.45904,1.811091 5.237252,2.175994 5.464661,9.594157 0.3708,12.095668 l -1.494935,0.734139 -11.773958,0.04179 c -6.475677,0.02299 -12.012083,-0.01453 -12.303125,-0.08339 z m 13.305348,-7.811489 0.07618,-2.296842 0.916008,0.148648 c 0.503804,0.08176 0.916006,0.04079 0.916006,-0.09103 0,-0.131821 -0.893982,-1.127691 -1.986626,-2.213044 l -1.986627,-1.973368 -2.046135,2.046134 -2.046135,2.046137 h 0.990053 0.990054 v 2.392378 2.392381 l 2.050521,-0.07728 2.05052,-0.07727 z M 87.406993,37.046875 c 0,-5.909027 0.01535,-6.085416 0.529167,-6.085416 0.418478,0 0.529166,0.176389 0.529166,0.843251 v 0.843251 l 0.727605,-0.681235 c 0.879435,-0.82339 1.644512,-1.077872 3.149695,-1.04766 2.920637,0.05862 4.775887,2.615324 4.060801,5.596143 -0.756838,3.154855 -4.8705,4.429945 -7.1735,2.223532 l -0.764601,-0.732535 v 2.563043 c 0,2.386653 -0.03642,2.563043 -0.529166,2.563043 -0.513829,0 -0.529167,-0.17639 -0.529167,-6.085417 z m 6.357273,1.401205 c 0.927045,-0.638941 1.266735,-1.125451 1.59077,-2.278322 1.109795,-3.948513 -4.692382,-6.186978 -6.447866,-2.487571 -1.196512,2.521463 0.422614,5.213263 3.137305,5.215782 0.586086,5.56e-4 1.359992,-0.201906 1.719791,-0.449889 z m -25.936438,1.275631 c -1.362647,-0.290778 -2.121562,-0.768718 -1.946215,-1.225664 0.183124,-0.477213 0.09144,-0.47751 1.243947,0.004 1.091901,0.456226 3.147322,0.522947 3.888597,0.126228 0.648232,-0.346923 1.087744,-1.167409 0.894752,-1.670336 -0.177546,-0.462673 -1.02956,-0.813265 -3.022748,-1.243815 -1.951114,-0.421462 -2.587421,-0.864991 -2.789978,-1.944714 -0.209664,-1.117605 0.178707,-1.8817 1.233728,-2.427273 0.95572,-0.494221 3.292014,-0.547462 4.631068,-0.105534 0.822211,0.271354 0.898027,0.363283 0.570079,0.691231 -0.291682,0.291681 -0.544068,0.315208 -1.102757,0.102795 -1.34543,-0.511531 -3.02724,-0.343577 -3.74479,0.373975 -0.357188,0.357188 -0.649433,0.773906 -0.649433,0.926042 0,0.623321 1.10224,1.304899 2.556015,1.580528 1.958908,0.371402 2.753725,0.777699 3.249583,1.661131 0.490641,0.874136 0.178131,1.926006 -0.778515,2.6204 -0.76181,0.552968 -2.883294,0.819058 -4.233333,0.53097 z m 9.949989,-0.118071 c -1.814105,-0.54761 -2.131769,-1.290964 -2.231954,-5.222935 -0.0845,-3.316387 -0.07031,-3.421246 0.463021,-3.421246 0.524007,0 0.550193,0.139146 0.550193,2.923555 0,2.121435 0.112366,3.140847 0.409549,3.715534 1.000556,1.934866 4.427849,1.656499 5.299836,-0.430456 0.240192,-0.574861 0.376031,-1.858834 0.376031,-3.554302 0,-2.477942 0.03517,-2.654331 0.529167,-2.654331 0.507786,0 0.529167,0.176389 0.529167,4.365625 0,4.189235 -0.02138,4.365624 -0.529167,4.365624 -0.397253,0 -0.529167,-0.176389 -0.529167,-0.707578 v -0.707579 l -0.635886,0.597383 c -0.349737,0.32856 -1.093877,0.703662 -1.653646,0.833558 -1.238829,0.287476 -1.290973,0.285395 -2.577144,-0.102852 z M 55.656995,33.739584 v -5.953125 h 4.101041 c 3.924652,0 4.101042,0.02276 4.101042,0.529166 0,0.503035 -0.17639,0.529167 -3.571875,0.529167 h -3.571875 v 2.248958 2.248959 h 3.175 c 2.645833,0 3.175,0.06614 3.175,0.396875 0,0.330729 -0.529167,0.396875 -3.175,0.396875 h -3.175 v 2.381249 2.38125 h 3.704167 c 3.116204,0 3.704166,0.063 3.704166,0.396875 0,0.336242 -0.646758,0.396875 -4.233333,0.396875 h -4.233333 z"
         id="path3728"
         inkscape:connector-curvature="0" />
      <text
         xml:space="preserve"
         id="text11"
         style="font-style:normal;font-weight:normal;font-size:10.5833px;line-height:1.25;font-family:sans-serif;white-space:pre;shape-inside:url(#rect13);fill:#096fb2;fill-opacity:1;stroke:none;"
         transform="translate(-11.8215,60.329429)"><tspan
           x="65.171875"
           y="3.9395933"><tspan
             style="font-style:normal;font-variant:normal;font-weight:bold;font-stretch:normal;font-size:28.2222px;font-family:Cantarell;-inkscape-font-specification:'Cantarell, Bold';font-variant-ligatures:normal;font-variant-caps:normal;font-variant-numeric:normal;font-variant-east-asian:normal;fill:#096fb2;fill-opacity:1">DSS Client</tspan></tspan></text>
    </g>
  </g>
</svg>
